<svg width="40" height="36" viewBox="0 0 40 36" fill="none" xmlns="http://www.w3.org/2000/svg">
<g clip-path="url(#clip0_514_32323)">
<path d="M27.2912 27.7657H32.2275L26.8896 32.8872V28.1271C26.8896 27.9277 27.0698 27.7657 27.2912 27.7657ZM21.3343 7.88012L22.8561 7.70294L21.9061 6.47594L21.3343 7.88012ZM35.1996 0.882353V26.001H27.2912C25.9885 26.001 24.9288 26.9548 24.9288 28.1271V36H5.78081C5.23924 36 4.80042 35.6049 4.80042 35.1176V0.882353C4.80042 0.395118 5.23924 0 5.78081 0H34.219C34.7606 0 35.1996 0.395118 35.1996 0.882353ZM18.7737 11.6047C18.8851 11.6414 18.9988 11.6589 19.1112 11.6589C19.5108 11.6589 19.8863 11.4372 20.0316 11.0799L20.5737 9.74824L24.1196 9.33529L25.0206 10.4989C25.2114 10.7451 25.5159 10.8769 25.8257 10.8769C26.0192 10.8769 26.2147 10.8254 26.3853 10.7185C26.8296 10.4398 26.9387 9.88994 26.6292 9.49024L22.4377 4.07665C22.4361 4.07471 22.4339 4.07312 22.4324 4.07118C22.4053 4.03659 22.373 4.00553 22.3402 3.97465C22.3283 3.96335 22.3181 3.94976 22.3055 3.93918C22.2796 3.91729 22.2494 3.89929 22.2208 3.87988C22.1979 3.86435 22.1767 3.84653 22.1526 3.83294C22.1341 3.82253 22.113 3.81565 22.0936 3.80629C22.0557 3.78812 22.0183 3.76941 21.9783 3.756C21.9755 3.75512 21.9734 3.75353 21.9706 3.75265C21.9477 3.74506 21.9241 3.74259 21.9012 3.73659C21.8653 3.72741 21.8298 3.71718 21.793 3.71171C21.7604 3.70676 21.7283 3.70641 21.6957 3.70465C21.6649 3.70288 21.6343 3.69971 21.6034 3.70041C21.5702 3.70129 21.5381 3.70641 21.5053 3.71029C21.4749 3.71382 21.4445 3.71612 21.4143 3.72229C21.3818 3.729 21.3508 3.73976 21.319 3.74947C21.2906 3.75812 21.2618 3.76518 21.2339 3.77647C21.1963 3.79165 21.1616 3.81124 21.1263 3.83047C21.1087 3.84018 21.09 3.84653 21.0728 3.85729C21.0708 3.85853 21.0692 3.86029 21.0673 3.86153C21.0279 3.88659 20.9924 3.91624 20.9573 3.94641C20.9453 3.95665 20.9314 3.96529 20.92 3.97588C20.8963 3.99847 20.8771 4.02494 20.8561 4.04982C20.8381 4.07118 20.8175 4.09112 20.802 4.11371C20.7918 4.12835 20.7851 4.14547 20.7757 4.16082C20.7539 4.197 20.7322 4.233 20.7163 4.27129C20.7153 4.27359 20.7137 4.27535 20.713 4.27765L18.1906 10.4726C18.0043 10.9302 18.2653 11.4371 18.7737 11.6047ZM21.3528 26.8834C21.3528 26.3961 20.9139 26.001 20.3724 26.001H10.4412C9.89963 26.001 9.46081 26.3961 9.46081 26.8834C9.46081 27.3706 9.89963 27.7657 10.4412 27.7657H20.3726C20.9139 27.7657 21.3528 27.3706 21.3528 26.8834ZM25.521 21.501C25.521 21.0138 25.0822 20.6186 24.5406 20.6186H10.4412C9.89963 20.6186 9.46081 21.0138 9.46081 21.501C9.46081 21.9882 9.89963 22.3834 10.4412 22.3834H24.5406C25.0822 22.3834 25.521 21.9882 25.521 21.501ZM28.5785 16.1186C28.5785 15.6314 28.1396 15.2363 27.5981 15.2363H10.4412C9.89963 15.2363 9.46081 15.6314 9.46081 16.1186C9.46081 16.6059 9.89963 17.001 10.4412 17.001H27.5981C28.1396 17.001 28.5785 16.6059 28.5785 16.1186ZM32.3132 5.65041C32.2438 5.16741 31.7539 4.82594 31.2149 4.88859L29.9049 5.04124L29.7353 3.86224C29.6659 3.37906 29.1763 3.03759 28.6371 3.10041C28.1002 3.16288 27.721 3.60547 27.7906 4.08865L27.9602 5.26765L26.6502 5.42029C26.1134 5.48276 25.7341 5.92518 25.8037 6.40853C25.8677 6.85341 26.2894 7.17776 26.7749 7.17776C26.8167 7.17776 26.8592 7.17529 26.902 7.17035L28.212 7.01771L28.3816 8.19671C28.4455 8.64159 28.8673 8.96594 29.3528 8.96594C29.3945 8.96594 29.4371 8.96347 29.4796 8.95853C30.0165 8.89606 30.3957 8.45347 30.3261 7.97029L30.1565 6.79129L31.4665 6.63865C32.0036 6.57618 32.3826 6.13377 32.3132 5.65041Z" fill="#2CC0CA"/>
</g>
<defs>
<clipPath id="clip0_514_32323">
<rect width="40" height="36" fill="white"/>
</clipPath>
</defs>
</svg>
